<?xml version="1.0" encoding="utf-8"?>
<!-- Generator: Adobe Illustrator 23.0.1, SVG Export Plug-In . SVG Version: 6.00 Build 0)  -->
<svg version="1.1" id="Layer_1" xmlns="http://www.w3.org/2000/svg" xmlns:xlink="http://www.w3.org/1999/xlink" x="0px" y="0px"
	 viewBox="0 0 190 90" style="enable-background:new 0 0 190 90;" xml:space="preserve">
<g>
	<linearGradient id="SVGID_1_" gradientUnits="userSpaceOnUse" x1="52.7653" y1="60.6853" x2="53.1473" y2="46.8797">
		<stop  offset="0" style="stop-color:#F05A2B"/>
		<stop  offset="0.1076" style="stop-color:#F1632D"/>
		<stop  offset="0.2521" style="stop-color:#F37432"/>
		<stop  offset="0.5616" style="stop-color:#F7943A"/>
		<stop  offset="0.822" style="stop-color:#F9A83F"/>
		<stop  offset="1" style="stop-color:#FAAF41"/>
	</linearGradient>
	<path style="fill:url(#SVGID_1_);" d="M23.3,48.5c0,0,19.8-19,59.7-3.3c0,0-41-14.3-58.5,6.2L23.3,48.5z"/>
	<g>
		
			<linearGradient id="SVGID_2_" gradientUnits="userSpaceOnUse" x1="-291.9766" y1="-2667.6653" x2="-277.6513" y2="-2683.7812" gradientTransform="matrix(0.8036 0.3927 0.3005 -0.8466 1213.2487 -2126.7495)">
			<stop  offset="0" style="stop-color:#293B8F"/>
			<stop  offset="1" style="stop-color:#29AAE1"/>
		</linearGradient>
		<polygon style="fill:url(#SVGID_2_);" points="182.5,43.6 182.5,17.4 172.6,20.8 		"/>
		
			<linearGradient id="SVGID_3_" gradientUnits="userSpaceOnUse" x1="-1221.9644" y1="662.6668" x2="-1245.3123" y2="664.1937" gradientTransform="matrix(0.9215 -0.3885 0.3885 0.9215 1055.2275 -1066.8489)">
			<stop  offset="0" style="stop-color:#F05A2B"/>
			<stop  offset="0.1076" style="stop-color:#F1632D"/>
			<stop  offset="1" style="stop-color:#FAAF41"/>
		</linearGradient>
		<polygon style="fill:url(#SVGID_3_);" points="159.2,25.1 182.5,17.4 182.5,27.7 		"/>
	</g>
	<linearGradient id="SVGID_4_" gradientUnits="userSpaceOnUse" x1="41.9686" y1="64.8907" x2="41.1677" y2="43.8658">
		<stop  offset="0" style="stop-color:#293B8F"/>
		<stop  offset="1" style="stop-color:#29AAE1"/>
	</linearGradient>
	<path style="fill:url(#SVGID_4_);" d="M40,44.7c0-1.3-0.2-2.4-0.5-3.2c-0.4-0.8-1.2-1.2-2.5-1.2h-0.4V39h5.2c0.8,0,1.4,0.1,1.9,0.3
		c0.5,0.2,0.9,0.5,1.2,0.9c0.3,0.4,0.5,1,0.6,1.7c0.1,0.7,0.2,1.6,0.2,2.7v14.8H40V44.7z M45.2,34.2c0,0.8-0.2,1.4-0.7,1.8
		c-0.5,0.4-1,0.7-1.7,0.7c-1.1,0-1.9-0.3-2.5-1c-0.5-0.7-0.8-1.4-0.8-2.3c0-0.8,0.2-1.4,0.7-1.8c0.5-0.4,1-0.7,1.7-0.7
		c1.1,0,1.9,0.3,2.5,1C45,32.6,45.2,33.4,45.2,34.2z"/>
	<linearGradient id="SVGID_5_" gradientUnits="userSpaceOnUse" x1="60.0103" y1="64.2034" x2="59.2093" y2="43.1785">
		<stop  offset="0" style="stop-color:#293B8F"/>
		<stop  offset="1" style="stop-color:#29AAE1"/>
	</linearGradient>
	<path style="fill:url(#SVGID_5_);" d="M60.5,58c1.5,0,2.7-0.3,3.7-1c0.9-0.7,1.8-1.6,2.5-2.6l1.4,1c-0.3,0.5-0.7,1-1.2,1.5
		c-0.5,0.5-1,1-1.7,1.5c-0.7,0.5-1.4,0.8-2.3,1.1c-0.9,0.3-1.9,0.4-3.1,0.4c-1.5,0-2.9-0.3-4.2-0.8c-1.2-0.5-2.3-1.3-3.2-2.2
		c-0.9-1-1.5-2.1-2-3.4c-0.5-1.3-0.7-2.7-0.7-4.2c0-1.7,0.2-3.3,0.7-4.6c0.5-1.3,1.2-2.4,2-3.3c0.9-0.9,1.9-1.6,3-2
		c1.2-0.5,2.4-0.7,3.8-0.7c1.4,0,2.6,0.2,3.8,0.6c1.2,0.4,2.2,1,3,1.8c0.9,0.8,1.5,1.7,2,2.7c0.5,1.1,0.7,2.3,0.7,3.6
		c0,0.3,0,0.6,0,1c0,0.3,0,0.6-0.1,0.9c0,0.3-0.1,0.6-0.1,0.9H55.7c0,2.9,0.4,4.9,1.3,6.1C57.9,57.4,59.1,58,60.5,58z M63.1,48.1
		c0-1.5-0.1-2.7-0.3-3.6c-0.2-1-0.4-1.7-0.8-2.3c-0.3-0.6-0.7-1-1.2-1.2c-0.5-0.2-1-0.4-1.5-0.4c-0.5,0-1,0.1-1.4,0.4
		c-0.5,0.2-0.8,0.7-1.2,1.2c-0.3,0.6-0.6,1.4-0.8,2.3c-0.2,1-0.3,2.2-0.3,3.6H63.1z"/>
	<linearGradient id="SVGID_6_" gradientUnits="userSpaceOnUse" x1="79.1296" y1="63.4751" x2="78.3287" y2="42.4501">
		<stop  offset="0" style="stop-color:#293B8F"/>
		<stop  offset="1" style="stop-color:#29AAE1"/>
	</linearGradient>
	<path style="fill:url(#SVGID_6_);" d="M79.6,39h4.8v2h-4.8v12.9c0,1.6,0.2,2.7,0.6,3.3c0.4,0.6,1,0.8,1.7,0.8
		c0.5,0,0.9-0.1,1.3-0.2c0.4-0.1,0.8-0.2,1.1-0.4c0.3-0.2,0.7-0.4,1-0.6l0.6,1.2c-0.4,0.3-0.8,0.7-1.4,1c-0.5,0.2-1.1,0.5-1.8,0.7
		c-0.7,0.2-1.6,0.3-2.5,0.3c-2,0-3.5-0.5-4.6-1.6c-1.1-1.1-1.7-2.7-1.7-4.7V41h-2.6v-2h2.6v-3.9l2.2-2.6h3.5V39z"/>
	<linearGradient id="SVGID_7_" gradientUnits="userSpaceOnUse" x1="31.4371" y1="65.2919" x2="30.6361" y2="44.267">
		<stop  offset="0" style="stop-color:#293B8F"/>
		<stop  offset="1" style="stop-color:#29AAE1"/>
	</linearGradient>
	<polygon style="fill:url(#SVGID_7_);" points="36.2,30.7 34,30.7 24.8,52.1 25.8,55 	"/>
	<linearGradient id="SVGID_8_" gradientUnits="userSpaceOnUse" x1="17.5118" y1="65.8224" x2="16.7108" y2="44.7975">
		<stop  offset="0" style="stop-color:#293B8F"/>
		<stop  offset="1" style="stop-color:#29AAE1"/>
	</linearGradient>
	<path style="fill:url(#SVGID_8_);" d="M16.1,32.9c-0.7-0.7-1.4-1.3-2.2-1.7c-0.8-0.4-1.5-0.6-2.3-0.7c-0.8-0.1-1.6-0.2-2.3-0.2
		c-0.2,0-0.5,0-1,0c-0.5,0-0.7,0-0.8,0v0.9c0.9,0.1,1.6,0.5,2.3,1.2c0.7,0.7,1.3,1.8,2,3.4l10.2,24.1h1.7l2.1-5l-1-2.8l-6.9-16.3
		C17.4,34.6,16.8,33.6,16.1,32.9z"/>
	<g>
		<path style="fill:#FFFFFF;" d="M89.9,65.6v6.8h-0.7v-6.8h-1.7V65h4.2v0.7H89.9z"/>
		<path style="fill:#FFFFFF;" d="M99.8,69c-0.4,0.4-0.9,0.6-1.6,0.7l2.1,2.8h-0.9L96.8,69l0.8,0c0.3,0,0.6,0,0.8-0.1
			c0.8-0.2,1.2-0.8,1.2-1.6c0-0.7-0.3-1.1-0.8-1.4c-0.2-0.1-0.4-0.2-0.7-0.2c-0.2,0-0.4,0-0.7,0h-1.3v6.8h-0.7V65h1.9
			c0.2,0,0.3,0,0.5,0c0.2,0,0.3,0,0.5,0c0.4,0,0.7,0.1,0.9,0.2c0.9,0.4,1.3,1.1,1.3,2.1C100.4,68,100.2,68.5,99.8,69z"/>
		<path style="fill:#FFFFFF;" d="M110,72.4l-1.1-2.5h-3.5l-1.1,2.5h-0.8l3.2-7.5h0.8l3.2,7.5H110z M107.2,65.8l-1.5,3.4h2.9
			L107.2,65.8z"/>
		<path style="fill:#FFFFFF;" d="M117.3,72.4h-0.7l-3.1-7.5h0.8l2.6,6.6l2.6-6.6h0.8L117.3,72.4z"/>
		<path style="fill:#FFFFFF;" d="M124.2,72.4V65h4.1v0.7H125v2.7h3.2V69H125v2.8h3.3v0.7H124.2z"/>
		<path style="fill:#FFFFFF;" d="M132.8,72.4V65h0.7v6.8h3.1v0.7H132.8z"/>
		<path style="fill:#FFFFFF;" d="M140.5,72.4V65h0.8v6.8h3.1v0.7H140.5z"/>
		<path style="fill:#FFFFFF;" d="M154.5,71.4c-0.8,0.7-1.7,1.1-2.8,1.1c-1.1,0-2-0.4-2.8-1.1c-0.8-0.8-1.2-1.7-1.2-2.7
			c0-1.1,0.4-2,1.2-2.8c0.8-0.8,1.7-1.1,2.8-1.1c1.1,0,2,0.4,2.8,1.1c0.8,0.8,1.2,1.7,1.2,2.7C155.7,69.8,155.3,70.7,154.5,71.4z
			 M154,66.4c-0.6-0.6-1.4-0.9-2.3-0.9c-0.9,0-1.6,0.3-2.3,1c-0.6,0.6-0.9,1.4-0.9,2.3c0,0.9,0.3,1.6,1,2.2c0.6,0.6,1.4,0.9,2.2,0.9
			c0.9,0,1.6-0.3,2.3-0.9c0.6-0.6,1-1.4,1-2.2S154.7,67.1,154,66.4z"/>
		<path style="fill:#FFFFFF;" d="M167.5,69c-0.1,1-0.5,1.9-1.3,2.6c-0.8,0.7-1.7,1-2.7,1c-1.1,0-2-0.4-2.8-1.1
			c-0.8-0.8-1.2-1.7-1.2-2.7c0-1.1,0.4-2,1.2-2.8c0.8-0.7,1.7-1.1,2.8-1.1c1.2,0,2.3,0.5,3.1,1.4c0.2,0.2,0.4,0.5,0.5,0.7h-0.9
			c-0.3-0.4-0.6-0.8-1.1-1.1c-0.5-0.3-1-0.4-1.5-0.4c-0.9,0-1.7,0.3-2.3,0.9c-0.6,0.6-1,1.4-1,2.3c0,0.9,0.3,1.7,1,2.3
			c0.6,0.6,1.4,0.9,2.3,0.9c0.7,0,1.3-0.2,1.9-0.6c0.6-0.4,1-1,1.1-1.6h-4.2V69H167.5z"/>
	</g>
	<linearGradient id="SVGID_9_" gradientUnits="userSpaceOnUse" x1="17.2702" y1="69.9258" x2="16.8697" y2="52.7053">
		<stop  offset="0" style="stop-color:#F05A2B"/>
		<stop  offset="0.1076" style="stop-color:#F1632D"/>
		<stop  offset="1" style="stop-color:#FAAF41"/>
	</linearGradient>
	<path style="fill:url(#SVGID_9_);" d="M17.9,35.8c-0.5-1.2-1.1-2.2-1.8-3c-0.7-0.7-1.4-1.3-2.2-1.7c-0.8-0.4-1.5-0.6-2.3-0.7
		c-0.8-0.1-1.6-0.2-2.3-0.2c-0.2,0-0.5,0-1,0c-0.5,0-0.7,0-0.8,0v0.9c0.9,0.1,1.6,0.5,2.3,1.2c0.7,0.7,1.3,1.8,2,3.4l10.2,24.1h1.7
		l2.1-5l-1-2.8L17.9,35.8z"/>
	<path style="fill:none;" d="M154.7,41.2c-0.7,0.3-1.2,0.7-1.5,1.2c0,0.1,0.1,0.1,0.1,0.2c1.3-0.6,2.6-1.2,3.8-1.8c0,0-0.1,0-0.1,0
		C156.1,40.7,155.3,40.8,154.7,41.2z"/>
	<path style="fill:none;" d="M119.1,50.9c-0.4,0.4-0.6,0.8-0.8,1.4c-0.2,0.5-0.3,1.1-0.3,1.8c0,1.2,0.3,2.2,0.8,2.8
		c0.5,0.6,1.2,0.9,2.1,0.9c0.7,0,1.2-0.1,1.7-0.4c0.5-0.3,0.8-0.6,1.2-1c0.3-0.4,0.6-0.9,0.9-1.5v-2.6v-1.6v-0.2
		c-1.7,0.1-3.5,0.2-5.4,0.2C119.1,50.9,119.1,50.9,119.1,50.9z"/>
	<path style="fill:none;" d="M122,49.6c0.6,0,1.3-0.1,1.9-0.1h-0.1C123.2,49.5,122.6,49.5,122,49.6z"/>
	<path style="fill:none;" d="M101.6,42c-0.8-0.9-1.8-1.3-3-1.3c-0.9,0-1.7,0.1-2.4,0.4c-0.7,0.3-1.2,0.6-1.6,1
		c0,0.2,0.1,0.4,0.1,0.6c0.1,0.2,0.1,0.5,0.1,0.7c0,0.3,0,0.6,0,1v3.5V48c2.2,0.4,4.8,0.8,7.8,1.1v-2.6
		C102.8,44.4,102.4,42.9,101.6,42z"/>
	<path style="fill:none;" d="M144.7,40.7c-0.7,0-1.3,0.2-2,0.6c-0.6,0.4-1.1,0.8-1.4,1.2c0,0.2,0.1,0.4,0.1,0.6
		c0.1,0.2,0.1,0.5,0.1,0.7c0,0.3,0,0.6,0,1v1.8c2.1-0.6,4.3-1.2,6.4-2c-0.1-1.1-0.4-2-0.9-2.6C146.5,41.1,145.7,40.7,144.7,40.7z"/>
	<linearGradient id="SVGID_10_" gradientUnits="userSpaceOnUse" x1="92.4686" y1="68.6211" x2="92.0621" y2="51.1407">
		<stop  offset="0" style="stop-color:#F05A2B"/>
		<stop  offset="0.1076" style="stop-color:#F1632D"/>
		<stop  offset="1" style="stop-color:#FAAF41"/>
	</linearGradient>
	<path style="fill:url(#SVGID_10_);" d="M89.3,59.5H95V48.2c-1.9-0.4-3.7-0.9-5.7-1.4V59.5z"/>
	<linearGradient id="SVGID_11_" gradientUnits="userSpaceOnUse" x1="97.7418" y1="68.4985" x2="97.3352" y2="51.018">
		<stop  offset="0" style="stop-color:#F05A2B"/>
		<stop  offset="0.1076" style="stop-color:#F1632D"/>
		<stop  offset="1" style="stop-color:#FAAF41"/>
	</linearGradient>
	<path style="fill:url(#SVGID_11_);" d="M95,47.8v-3.5c0-0.4,0-0.7,0-1c0-0.3-0.1-0.5-0.1-0.7c-0.1-0.2-0.1-0.4-0.1-0.6
		c0.4-0.4,0.9-0.7,1.6-1c0.7-0.3,1.5-0.4,2.4-0.4c1.2,0,2.2,0.4,3,1.3c0.8,0.9,1.2,2.4,1.2,4.5v2.6c1.8,0.2,3.7,0.4,5.7,0.5v-2.9
		c0-2.8-0.7-4.9-2.1-6.1c-1.4-1.3-3.5-1.9-6.2-1.9c-0.9,0-1.7,0.1-2.4,0.2c-0.7,0.1-1.3,0.3-1.8,0.5c-0.5,0.2-0.9,0.4-1.3,0.7
		c-0.4,0.2-0.7,0.5-0.9,0.7c-0.3-0.6-0.8-1-1.3-1.2c-0.6-0.2-1.3-0.4-2.3-0.4h-4.3v1.3h0.4c0.6,0,1.2,0.1,1.6,0.3
		c0.4,0.2,0.7,0.5,0.9,0.9c0.2,0.4,0.3,0.9,0.4,1.4c0.1,0.5,0.1,1.1,0.1,1.8v2.1c1.1,0.3,3,0.7,5.7,1.1V47.8z"/>
	<linearGradient id="SVGID_12_" gradientUnits="userSpaceOnUse" x1="105.943" y1="68.3078" x2="105.5365" y2="50.8273">
		<stop  offset="0" style="stop-color:#F05A2B"/>
		<stop  offset="0.1076" style="stop-color:#F1632D"/>
		<stop  offset="1" style="stop-color:#FAAF41"/>
	</linearGradient>
	<path style="fill:url(#SVGID_12_);" d="M102.8,50.2v9.3h5.7v-8.2v-1c-1.8-0.2-3.7-0.4-5.7-0.7V50.2z"/>
	<linearGradient id="SVGID_13_" gradientUnits="userSpaceOnUse" x1="163.1043" y1="76.55" x2="162.2013" y2="37.7204">
		<stop  offset="0" style="stop-color:#F05A2B"/>
		<stop  offset="0.1076" style="stop-color:#F1632D"/>
		<stop  offset="1" style="stop-color:#FAAF41"/>
	</linearGradient>
	<path style="fill:url(#SVGID_13_);" d="M159.4,42c0.2,0.3,0.4,0.6,0.5,1c0.3,0.9,0.5,2,0.5,3.5v13h5.7V46.6c0-2.7-0.6-4.7-1.9-6
		c0,0-0.1-0.1-0.1-0.1c-0.5-0.5-1.1-0.9-1.8-1.2c-1.1,0.7-2.3,1.3-3.6,2C158.9,41.5,159.1,41.7,159.4,42z"/>
	<linearGradient id="SVGID_14_" gradientUnits="userSpaceOnUse" x1="139.3318" y1="77.1029" x2="138.4288" y2="38.2732">
		<stop  offset="0" style="stop-color:#F05A2B"/>
		<stop  offset="0.1076" style="stop-color:#F1632D"/>
		<stop  offset="1" style="stop-color:#FAAF41"/>
	</linearGradient>
	<path style="fill:url(#SVGID_14_);" d="M136,49.5v1.8v8.3h5.7V50v-1.9v-0.3c-1.8,0.5-3.7,0.9-5.7,1.3V49.5z"/>
	<linearGradient id="SVGID_15_" gradientUnits="userSpaceOnUse" x1="151.5428" y1="76.8189" x2="150.6398" y2="37.9892">
		<stop  offset="0" style="stop-color:#F05A2B"/>
		<stop  offset="0.1076" style="stop-color:#F1632D"/>
		<stop  offset="1" style="stop-color:#FAAF41"/>
	</linearGradient>
	<path style="fill:url(#SVGID_15_);" d="M148.1,46c0,0.2,0,0.3,0,0.5v1.6v11.4h5.7v-13c0-0.2,0-0.4,0-0.6c0-0.5,0-0.9-0.1-1.3
		c0-0.3-0.1-0.6-0.1-0.9c-1.7,0.7-3.5,1.5-5.4,2.1C148.1,45.9,148.1,46,148.1,46z"/>
	<linearGradient id="SVGID_16_" gradientUnits="userSpaceOnUse" x1="147.3566" y1="76.9163" x2="146.4536" y2="38.0866">
		<stop  offset="0" style="stop-color:#F05A2B"/>
		<stop  offset="0.1076" style="stop-color:#F1632D"/>
		<stop  offset="1" style="stop-color:#FAAF41"/>
	</linearGradient>
	<path style="fill:url(#SVGID_16_);" d="M141.6,44.8c0-0.4,0-0.7,0-1c0-0.3-0.1-0.5-0.1-0.7c-0.1-0.2-0.1-0.4-0.1-0.6
		c0.3-0.4,0.8-0.8,1.4-1.2c0.6-0.4,1.3-0.6,2-0.6c1,0,1.8,0.4,2.5,1.3c0.4,0.6,0.7,1.5,0.9,2.6c1.7-0.6,3.4-1.3,5.2-2.1
		c0-0.1-0.1-0.1-0.1-0.2c0.4-0.5,0.9-0.9,1.5-1.2c0.7-0.3,1.4-0.5,2.2-0.5c0,0,0.1,0,0.1,0c1.2-0.6,2.3-1.2,3.4-1.9
		c-0.6-0.1-1.3-0.2-2.1-0.2c-1.7,0-3,0.3-3.9,0.8c-0.9,0.5-1.7,1.1-2.3,1.7c-0.2-0.2-0.4-0.4-0.8-0.7c-0.3-0.3-0.8-0.5-1.3-0.8
		c-0.5-0.3-1.1-0.5-1.8-0.7c-0.7-0.2-1.4-0.3-2.2-0.3c-1.3,0-2.4,0.2-3.3,0.7c-0.9,0.5-1.6,0.9-2.2,1.4h-0.2c-0.3-0.6-0.8-1-1.4-1.3
		c-0.6-0.2-1.4-0.4-2.3-0.4h-4.3v1.3h0.4c0.6,0,1.2,0.1,1.6,0.3c0.4,0.2,0.7,0.5,0.9,0.9c0.2,0.4,0.3,0.9,0.4,1.4
		c0.1,0.5,0.1,1.1,0.1,1.8v3.2c1.9-0.4,3.8-0.8,5.7-1.3V44.8z"/>
	<linearGradient id="SVGID_17_" gradientUnits="userSpaceOnUse" x1="106.0669" y1="68.3049" x2="105.6604" y2="50.8244">
		<stop  offset="0" style="stop-color:#F05A2B"/>
		<stop  offset="0.1076" style="stop-color:#F1632D"/>
		<stop  offset="1" style="stop-color:#FAAF41"/>
	</linearGradient>
	<path style="fill:url(#SVGID_17_);" d="M108.5,49.5c-2-0.1-3.9-0.3-5.7-0.5v0.4v0.2c1.9,0.3,3.8,0.5,5.7,0.7v-0.1V49.5z"/>
	<linearGradient id="SVGID_18_" gradientUnits="userSpaceOnUse" x1="92.6188" y1="68.6176" x2="92.2123" y2="51.1372">
		<stop  offset="0" style="stop-color:#F05A2B"/>
		<stop  offset="0.1076" style="stop-color:#F1632D"/>
		<stop  offset="1" style="stop-color:#FAAF41"/>
	</linearGradient>
	<path style="fill:url(#SVGID_18_);" d="M95,48c-2.6-0.5-4.6-0.9-5.7-1.1v0c1.9,0.5,3.8,1,5.7,1.4v-0.1V48z"/>
	<linearGradient id="SVGID_19_" gradientUnits="userSpaceOnUse" x1="160.4749" y1="76.6112" x2="159.5719" y2="37.7815">
		<stop  offset="0" style="stop-color:#F05A2B"/>
		<stop  offset="0.1076" style="stop-color:#F1632D"/>
		<stop  offset="1" style="stop-color:#FAAF41"/>
	</linearGradient>
	<path style="fill:url(#SVGID_19_);" d="M160.5,38.8c-1.1,0.7-2.3,1.3-3.4,1.9c0.5,0,0.9,0.2,1.4,0.4c0.1,0.1,0.2,0.1,0.3,0.2
		c1.3-0.7,2.5-1.3,3.6-2c-0.2-0.1-0.4-0.2-0.7-0.3C161.2,38.9,160.9,38.8,160.5,38.8z"/>
	<linearGradient id="SVGID_20_" gradientUnits="userSpaceOnUse" x1="151.5658" y1="76.8184" x2="150.6628" y2="37.9887">
		<stop  offset="0" style="stop-color:#F05A2B"/>
		<stop  offset="0.1076" style="stop-color:#F1632D"/>
		<stop  offset="1" style="stop-color:#FAAF41"/>
	</linearGradient>
	<path style="fill:url(#SVGID_20_);" d="M153.5,43.3c-0.1-0.3-0.2-0.6-0.3-0.8c-1.7,0.8-3.4,1.4-5.2,2.1c0.1,0.4,0.1,0.8,0.1,1.3
		c1.9-0.7,3.7-1.4,5.4-2.1c0,0,0,0,0-0.1C153.5,43.6,153.5,43.4,153.5,43.3z"/>
	<linearGradient id="SVGID_21_" gradientUnits="userSpaceOnUse" x1="139.4668" y1="77.0998" x2="138.5638" y2="38.2701">
		<stop  offset="0" style="stop-color:#F05A2B"/>
		<stop  offset="0.1076" style="stop-color:#F1632D"/>
		<stop  offset="1" style="stop-color:#FAAF41"/>
	</linearGradient>
	<path style="fill:url(#SVGID_21_);" d="M136,47.9v1.3c2-0.4,3.9-0.8,5.7-1.3v-1.3C139.7,47.1,137.8,47.5,136,47.9z"/>
	<g>
		<linearGradient id="SVGID_22_" gradientUnits="userSpaceOnUse" x1="120.2179" y1="59.3051" x2="122.3204" y2="48.292">
			<stop  offset="0" style="stop-color:#293B8F"/>
			<stop  offset="1" style="stop-color:#29AAE1"/>
		</linearGradient>
		<path style="fill:url(#SVGID_22_);" d="M119.4,50.6c-0.1,0.1-0.1,0.1-0.2,0.2c1.8,0,3.6-0.1,5.4-0.2v-1.2H124
			c-0.6,0-1.3,0.1-1.9,0.1C120.9,49.8,120,50.1,119.4,50.6z"/>
		<linearGradient id="SVGID_23_" gradientUnits="userSpaceOnUse" x1="103.0188" y1="56.0217" x2="105.1213" y2="45.0086">
			<stop  offset="0" style="stop-color:#293B8F"/>
			<stop  offset="1" style="stop-color:#29AAE1"/>
		</linearGradient>
		<path style="fill:url(#SVGID_23_);" d="M108.5,49.5c-2-0.1-3.9-0.3-5.7-0.5c-3-0.3-5.7-0.7-7.8-1.1v0.2v0.1
			c2.7,0.6,5.3,1.1,7.8,1.4c1.9,0.3,3.8,0.5,5.7,0.7c1.5,0.1,3,0.3,4.5,0.3c0.2-0.3,0.5-0.6,0.8-0.9C112,49.7,110.2,49.6,108.5,49.5
			z"/>
		<g>
			<linearGradient id="SVGID_24_" gradientUnits="userSpaceOnUse" x1="160.2166" y1="66.9412" x2="162.3191" y2="55.9282">
				<stop  offset="0" style="stop-color:#293B8F"/>
				<stop  offset="1" style="stop-color:#29AAE1"/>
			</linearGradient>
			<path style="fill:url(#SVGID_24_);" d="M172.1,30.7l-0.1-0.7c-3.6,3.4-7.5,6.3-11.5,8.7c0.4,0.1,0.8,0.2,1.1,0.3
				c0.2,0.1,0.4,0.2,0.7,0.3c4.7-2.8,7.8-5.4,9.2-6.7C172,32.2,172.3,31.4,172.1,30.7z"/>
			<linearGradient id="SVGID_25_" gradientUnits="userSpaceOnUse" x1="140.9645" y1="63.2658" x2="143.067" y2="52.2528">
				<stop  offset="0" style="stop-color:#293B8F"/>
				<stop  offset="1" style="stop-color:#29AAE1"/>
			</linearGradient>
			<path style="fill:url(#SVGID_25_);" d="M158.4,41.1c-0.4-0.2-0.9-0.4-1.4-0.4c-1.3,0.7-2.5,1.3-3.8,1.8c-1.7,0.8-3.4,1.4-5.2,2.1
				c-2.1,0.8-4.3,1.4-6.4,2c-1.9,0.5-3.8,0.9-5.7,1.3c-1.9,0.4-3.9,0.7-5.8,0.9v1.3c2-0.3,3.9-0.6,5.8-0.9c2-0.4,3.9-0.8,5.7-1.3
				c2.3-0.6,4.5-1.3,6.5-2c1.9-0.7,3.7-1.4,5.4-2.1c1.8-0.8,3.5-1.6,5.1-2.4C158.6,41.2,158.5,41.2,158.4,41.1z"/>
		</g>
	</g>
	<linearGradient id="SVGID_26_" gradientUnits="userSpaceOnUse" x1="117.6895" y1="57.8503" x2="117.3221" y2="42.0513">
		<stop  offset="0" style="stop-color:#293B8F"/>
		<stop  offset="1" style="stop-color:#29AAE1"/>
	</linearGradient>
	<path style="fill:url(#SVGID_26_);" d="M119.2,50.8c0.1-0.1,0.1-0.1,0.2-0.2c0.6-0.5,1.5-0.9,2.7-1c-2.8,0.2-5.6,0.2-8.2,0.1
		c-0.3,0.3-0.6,0.6-0.8,0.9C115.1,50.8,117.2,50.8,119.2,50.8z"/>
	<linearGradient id="SVGID_27_" gradientUnits="userSpaceOnUse" x1="127.2814" y1="57.6272" x2="126.914" y2="41.8283">
		<stop  offset="0" style="stop-color:#293B8F"/>
		<stop  offset="1" style="stop-color:#29AAE1"/>
	</linearGradient>
	<path style="fill:url(#SVGID_27_);" d="M124,49.5h0.6v1.2c1.9-0.1,3.8-0.3,5.7-0.5v-1.3C128.1,49.1,126,49.3,124,49.5z"/>
	<linearGradient id="SVGID_28_" gradientUnits="userSpaceOnUse" x1="126.4002" y1="275.9867" x2="121.2454" y2="54.3297">
		<stop  offset="0" style="stop-color:#F05A2B"/>
		<stop  offset="0.1076" style="stop-color:#F1632D"/>
		<stop  offset="1" style="stop-color:#FAAF41"/>
	</linearGradient>
	<path style="fill:url(#SVGID_28_);" d="M127.9,40.9c-1.6-1.5-3.8-2.3-6.6-2.3c-1.4,0-2.7,0.1-3.9,0.3c-1.2,0.2-2.1,0.6-2.6,1.2
		c-0.5,0.6-0.8,1.3-0.9,2c-0.1,0.8-0.2,1.6-0.2,2.3h2.4c0.2-0.8,0.4-1.5,0.7-2c0.3-0.5,0.6-0.9,1-1.2c0.4-0.3,0.8-0.5,1.2-0.6
		c0.4-0.1,0.9-0.2,1.4-0.2c1.3,0,2.3,0.5,3,1.5c0.7,1,1.1,2.8,1.1,5.4h-0.7c-2.4,0-4.3,0.1-5.8,0.4c-1.5,0.3-2.7,0.7-3.6,1.3
		c-0.2,0.2-0.5,0.3-0.7,0.5c-0.3,0.3-0.6,0.6-0.8,0.9l0,0c-0.1,0.2-0.2,0.4-0.3,0.6c-0.1,0.2-0.1,0.4-0.2,0.6
		c-0.2,0.7-0.3,1.4-0.3,2.2c0,1.7,0.6,3.2,1.9,4.2c1.3,1.1,3.1,1.6,5.5,1.6c0.9,0,1.7-0.1,2.4-0.3c0.7-0.2,1.2-0.5,1.6-0.8
		c0.5-0.3,0.9-0.8,1.2-1.2h0.2l1.5,2h3.7V52v-1.7v-0.2v-1.3v-1.1C130.2,44.7,129.4,42.4,127.9,40.9z M124.5,49.5v1.2v0.2v1.6V55
		c-0.2,0.6-0.5,1-0.9,1.5c-0.3,0.4-0.7,0.7-1.2,1c-0.5,0.3-1,0.4-1.7,0.4c-0.9,0-1.6-0.3-2.1-0.9c-0.5-0.6-0.8-1.6-0.8-2.8
		c0-0.7,0.1-1.3,0.3-1.8c0.2-0.5,0.4-1,0.8-1.4c0,0,0.1-0.1,0.1-0.1c0.1-0.1,0.1-0.1,0.2-0.2c0.6-0.5,1.5-0.9,2.7-1
		c0.6-0.1,1.2-0.1,1.8-0.1h0.1H124.5z"/>
</g>
</svg>
